<?xml version="1.0" standalone="no"?>
<!DOCTYPE svg PUBLIC "-//W3C//DTD SVG 20010904//EN"
 "http://www.w3.org/TR/2001/REC-SVG-20010904/DTD/svg10.dtd">
<svg version="1.0" xmlns="http://www.w3.org/2000/svg"
 width="1024.000000pt" height="1024.000000pt" viewBox="0 0 1024.000000 1024.000000"
 preserveAspectRatio="xMidYMid meet">
<metadata>
Created by potrace 1.14, written by Peter Selinger 2001-2017
</metadata>
<g transform="translate(0.000000,1024.000000) scale(0.100000,-0.100000)"
fill="#000000" stroke="none">
<path d="M890 10233 c-115 -19 -198 -40 -270 -70 -297 -122 -529 -399 -597
-713 -17 -82 -18 -254 -18 -4330 0 -4093 1 -4248 18 -4330 83 -379 389 -685
767 -767 82 -17 254 -18 4330 -18 4076 0 4248 1 4330 18 378 82 684 388 767
767 17 82 18 237 18 4330 0 4076 -1 4248 -18 4330 -80 371 -372 668 -747 763
l-85 22 -4235 1 c-2329 1 -4246 0 -4260 -3z m5665 -1955 c551 -91 987 -306
1351 -665 847 -836 950 -2156 244 -3105 -337 -453 -837 -781 -1375 -902 -266
-60 -233 -59 -1546 -63 l-1205 -4 -168 -612 c-183 -669 -201 -718 -302 -841
-98 -119 -226 -198 -374 -230 -66 -15 -148 -16 -683 -14 l-609 3 -29 33 c-19
21 -29 43 -29 63 0 28 80 348 510 2049 72 283 171 675 221 870 98 388 101 400
131 427 19 17 97 18 1842 23 l1821 5 65 23 c198 72 345 227 395 418 19 75 19
223 0 298 -41 157 -163 308 -306 379 -143 70 -45 67 -1769 67 -889 0 -1632 5
-1735 10 -358 20 -605 89 -812 226 -224 149 -352 355 -398 638 -22 134 -22
824 0 866 33 64 -157 60 2365 57 2074 -3 2305 -5 2395 -19z"/>
</g>
</svg>
